<mxfile host="app.diagrams.net" agent="Mozilla/5.0 (X11; Linux x86_64) AppleWebKit/537.36 (KHTML, like Gecko) Chrome/138.0.0.0 Safari/537.36" version="27.2.0">
  <diagram name="Page-1" id="sP743R7rRnxU0h5Rn-LQ">
    <mxGraphModel dx="1599" dy="793" grid="1" gridSize="10" guides="1" tooltips="1" connect="1" arrows="1" fold="1" page="1" pageScale="1" pageWidth="850" pageHeight="1100" math="0" shadow="0">
      <root>
        <mxCell id="0" />
        <mxCell id="1" parent="0" />
        <mxCell id="p8WYYzcqMeNaNPBPGeH2-3" value="System Administrator" style="shape=umlActor;verticalLabelPosition=bottom;verticalAlign=top;html=1;" vertex="1" parent="1">
          <mxGeometry x="380" y="930" width="30" height="60" as="geometry" />
        </mxCell>
        <mxCell id="p8WYYzcqMeNaNPBPGeH2-4" value="System" style="shape=umlFrame;whiteSpace=wrap;html=1;pointerEvents=0;" vertex="1" parent="1">
          <mxGeometry x="185" y="170" width="525" height="710" as="geometry" />
        </mxCell>
        <mxCell id="p8WYYzcqMeNaNPBPGeH2-6" value="Create booking" style="ellipse;whiteSpace=wrap;html=1;" vertex="1" parent="1">
          <mxGeometry x="190" y="200" width="140" height="70" as="geometry" />
        </mxCell>
        <mxCell id="p8WYYzcqMeNaNPBPGeH2-7" value="cancel booking" style="ellipse;whiteSpace=wrap;html=1;" vertex="1" parent="1">
          <mxGeometry x="200" y="280" width="140" height="70" as="geometry" />
        </mxCell>
        <mxCell id="p8WYYzcqMeNaNPBPGeH2-8" value="Track booking status" style="ellipse;whiteSpace=wrap;html=1;" vertex="1" parent="1">
          <mxGeometry x="200" y="390" width="140" height="70" as="geometry" />
        </mxCell>
        <mxCell id="p8WYYzcqMeNaNPBPGeH2-9" value="Make payment" style="ellipse;whiteSpace=wrap;html=1;" vertex="1" parent="1">
          <mxGeometry x="190" y="640" width="140" height="70" as="geometry" />
        </mxCell>
        <mxCell id="p8WYYzcqMeNaNPBPGeH2-10" value="Login" style="ellipse;whiteSpace=wrap;html=1;" vertex="1" parent="1">
          <mxGeometry x="400" y="620" width="140" height="70" as="geometry" />
        </mxCell>
        <mxCell id="p8WYYzcqMeNaNPBPGeH2-11" value="Add listing" style="ellipse;whiteSpace=wrap;html=1;" vertex="1" parent="1">
          <mxGeometry x="520" y="210" width="140" height="70" as="geometry" />
        </mxCell>
        <mxCell id="p8WYYzcqMeNaNPBPGeH2-12" value="Edit listing" style="ellipse;whiteSpace=wrap;html=1;" vertex="1" parent="1">
          <mxGeometry x="520" y="310" width="140" height="70" as="geometry" />
        </mxCell>
        <mxCell id="p8WYYzcqMeNaNPBPGeH2-13" value="delete listing" style="ellipse;whiteSpace=wrap;html=1;" vertex="1" parent="1">
          <mxGeometry x="520" y="410" width="140" height="70" as="geometry" />
        </mxCell>
        <mxCell id="p8WYYzcqMeNaNPBPGeH2-14" value="Respond to views" style="ellipse;whiteSpace=wrap;html=1;" vertex="1" parent="1">
          <mxGeometry x="550" y="660" width="140" height="70" as="geometry" />
        </mxCell>
        <mxCell id="p8WYYzcqMeNaNPBPGeH2-15" value="Manage profile" style="ellipse;whiteSpace=wrap;html=1;" vertex="1" parent="1">
          <mxGeometry x="355" y="450" width="140" height="70" as="geometry" />
        </mxCell>
        <mxCell id="p8WYYzcqMeNaNPBPGeH2-16" value="Leave reviews" style="ellipse;whiteSpace=wrap;html=1;" vertex="1" parent="1">
          <mxGeometry x="190" y="780" width="140" height="70" as="geometry" />
        </mxCell>
        <mxCell id="p8WYYzcqMeNaNPBPGeH2-17" value="Register" style="ellipse;whiteSpace=wrap;html=1;" vertex="1" parent="1">
          <mxGeometry x="370" y="540" width="140" height="70" as="geometry" />
        </mxCell>
        <mxCell id="p8WYYzcqMeNaNPBPGeH2-19" value="Guest" style="shape=umlActor;verticalLabelPosition=bottom;verticalAlign=top;html=1;" vertex="1" parent="1">
          <mxGeometry x="20" y="590" width="30" height="60" as="geometry" />
        </mxCell>
        <mxCell id="p8WYYzcqMeNaNPBPGeH2-21" value="Manage Users" style="ellipse;whiteSpace=wrap;html=1;" vertex="1" parent="1">
          <mxGeometry x="540" y="770" width="140" height="70" as="geometry" />
        </mxCell>
        <mxCell id="p8WYYzcqMeNaNPBPGeH2-31" value="" style="endArrow=classic;html=1;rounded=0;exitX=0.5;exitY=0.5;exitDx=0;exitDy=0;exitPerimeter=0;" edge="1" parent="1" source="p8WYYzcqMeNaNPBPGeH2-19" target="p8WYYzcqMeNaNPBPGeH2-10">
          <mxGeometry width="50" height="50" relative="1" as="geometry">
            <mxPoint x="400" y="830" as="sourcePoint" />
            <mxPoint x="150" y="620" as="targetPoint" />
            <Array as="points">
              <mxPoint x="150" y="620" />
            </Array>
          </mxGeometry>
        </mxCell>
        <mxCell id="p8WYYzcqMeNaNPBPGeH2-32" value="" style="endArrow=classic;html=1;rounded=0;entryX=0.007;entryY=0.714;entryDx=0;entryDy=0;entryPerimeter=0;" edge="1" parent="1" target="p8WYYzcqMeNaNPBPGeH2-8">
          <mxGeometry width="50" height="50" relative="1" as="geometry">
            <mxPoint x="40" y="620" as="sourcePoint" />
            <mxPoint x="90" y="570" as="targetPoint" />
          </mxGeometry>
        </mxCell>
        <mxCell id="p8WYYzcqMeNaNPBPGeH2-33" value="" style="endArrow=classic;html=1;rounded=0;" edge="1" parent="1" target="p8WYYzcqMeNaNPBPGeH2-7">
          <mxGeometry width="50" height="50" relative="1" as="geometry">
            <mxPoint x="40" y="620" as="sourcePoint" />
            <mxPoint x="90" y="570" as="targetPoint" />
          </mxGeometry>
        </mxCell>
        <mxCell id="p8WYYzcqMeNaNPBPGeH2-34" style="edgeStyle=orthogonalEdgeStyle;rounded=0;orthogonalLoop=1;jettySize=auto;html=1;exitX=0.5;exitY=0.5;exitDx=0;exitDy=0;exitPerimeter=0;entryX=0.633;entryY=0.65;entryDx=0;entryDy=0;entryPerimeter=0;" edge="1" parent="1" source="p8WYYzcqMeNaNPBPGeH2-19" target="p8WYYzcqMeNaNPBPGeH2-19">
          <mxGeometry relative="1" as="geometry" />
        </mxCell>
        <mxCell id="p8WYYzcqMeNaNPBPGeH2-35" value="" style="endArrow=classic;html=1;rounded=0;exitX=0.5;exitY=0.5;exitDx=0;exitDy=0;exitPerimeter=0;" edge="1" parent="1" source="p8WYYzcqMeNaNPBPGeH2-19">
          <mxGeometry width="50" height="50" relative="1" as="geometry">
            <mxPoint x="150" y="730" as="sourcePoint" />
            <mxPoint x="200" y="680" as="targetPoint" />
          </mxGeometry>
        </mxCell>
        <mxCell id="p8WYYzcqMeNaNPBPGeH2-36" value="" style="endArrow=classic;html=1;rounded=0;" edge="1" parent="1">
          <mxGeometry width="50" height="50" relative="1" as="geometry">
            <mxPoint x="40" y="630" as="sourcePoint" />
            <mxPoint x="190" y="820" as="targetPoint" />
          </mxGeometry>
        </mxCell>
        <mxCell id="p8WYYzcqMeNaNPBPGeH2-37" value="" style="endArrow=classic;html=1;rounded=0;entryX=0;entryY=1;entryDx=0;entryDy=0;" edge="1" parent="1" target="p8WYYzcqMeNaNPBPGeH2-6">
          <mxGeometry width="50" height="50" relative="1" as="geometry">
            <mxPoint x="40" y="620" as="sourcePoint" />
            <mxPoint x="90" y="570" as="targetPoint" />
          </mxGeometry>
        </mxCell>
        <mxCell id="p8WYYzcqMeNaNPBPGeH2-38" value="" style="endArrow=classic;html=1;rounded=0;" edge="1" parent="1" target="p8WYYzcqMeNaNPBPGeH2-17">
          <mxGeometry width="50" height="50" relative="1" as="geometry">
            <mxPoint x="40" y="620" as="sourcePoint" />
            <mxPoint x="90" y="570" as="targetPoint" />
          </mxGeometry>
        </mxCell>
        <mxCell id="p8WYYzcqMeNaNPBPGeH2-39" value="" style="endArrow=classic;html=1;rounded=0;" edge="1" parent="1" target="p8WYYzcqMeNaNPBPGeH2-13">
          <mxGeometry width="50" height="50" relative="1" as="geometry">
            <mxPoint x="790" y="470" as="sourcePoint" />
            <mxPoint x="850" y="420" as="targetPoint" />
            <Array as="points" />
          </mxGeometry>
        </mxCell>
        <mxCell id="p8WYYzcqMeNaNPBPGeH2-41" value="" style="endArrow=classic;html=1;rounded=0;entryX=1;entryY=1;entryDx=0;entryDy=0;" edge="1" parent="1" source="p8WYYzcqMeNaNPBPGeH2-2" target="p8WYYzcqMeNaNPBPGeH2-12">
          <mxGeometry width="50" height="50" relative="1" as="geometry">
            <mxPoint x="805" y="429.28932188134524" as="sourcePoint" />
            <mxPoint x="805" y="379.28932188134524" as="targetPoint" />
          </mxGeometry>
        </mxCell>
        <mxCell id="p8WYYzcqMeNaNPBPGeH2-42" value="" style="endArrow=classic;html=1;rounded=0;" edge="1" parent="1" target="p8WYYzcqMeNaNPBPGeH2-11">
          <mxGeometry width="50" height="50" relative="1" as="geometry">
            <mxPoint x="790" y="470" as="sourcePoint" />
            <mxPoint x="840" y="420" as="targetPoint" />
          </mxGeometry>
        </mxCell>
        <mxCell id="p8WYYzcqMeNaNPBPGeH2-44" value="" style="endArrow=classic;html=1;rounded=0;exitX=0.467;exitY=0.367;exitDx=0;exitDy=0;exitPerimeter=0;" edge="1" parent="1" source="p8WYYzcqMeNaNPBPGeH2-2" target="p8WYYzcqMeNaNPBPGeH2-14">
          <mxGeometry width="50" height="50" relative="1" as="geometry">
            <mxPoint x="400" y="590" as="sourcePoint" />
            <mxPoint x="450" y="540" as="targetPoint" />
          </mxGeometry>
        </mxCell>
        <mxCell id="p8WYYzcqMeNaNPBPGeH2-47" value="" style="endArrow=open;endFill=1;endSize=12;html=1;rounded=0;entryX=1;entryY=0.714;entryDx=0;entryDy=0;entryPerimeter=0;exitX=0.5;exitY=0.5;exitDx=0;exitDy=0;exitPerimeter=0;" edge="1" parent="1" source="p8WYYzcqMeNaNPBPGeH2-2" target="p8WYYzcqMeNaNPBPGeH2-17">
          <mxGeometry width="160" relative="1" as="geometry">
            <mxPoint x="810" y="470" as="sourcePoint" />
            <mxPoint x="970" y="470" as="targetPoint" />
          </mxGeometry>
        </mxCell>
        <mxCell id="p8WYYzcqMeNaNPBPGeH2-2" value="Host&lt;div&gt;&lt;br&gt;&lt;/div&gt;" style="shape=umlActor;verticalLabelPosition=bottom;verticalAlign=top;html=1;" vertex="1" parent="1">
          <mxGeometry x="780" y="440" width="30" height="60" as="geometry" />
        </mxCell>
        <mxCell id="p8WYYzcqMeNaNPBPGeH2-49" value="" style="endArrow=open;endFill=1;endSize=12;html=1;rounded=0;exitX=0.5;exitY=0.5;exitDx=0;exitDy=0;exitPerimeter=0;entryX=0.957;entryY=0.757;entryDx=0;entryDy=0;entryPerimeter=0;" edge="1" parent="1" source="p8WYYzcqMeNaNPBPGeH2-2" target="p8WYYzcqMeNaNPBPGeH2-15">
          <mxGeometry width="160" relative="1" as="geometry">
            <mxPoint x="340" y="500" as="sourcePoint" />
            <mxPoint x="500" y="500" as="targetPoint" />
          </mxGeometry>
        </mxCell>
        <mxCell id="p8WYYzcqMeNaNPBPGeH2-50" value="" style="endArrow=open;endFill=1;endSize=12;html=1;rounded=0;entryX=0;entryY=0.5;entryDx=0;entryDy=0;" edge="1" parent="1" target="p8WYYzcqMeNaNPBPGeH2-15">
          <mxGeometry width="160" relative="1" as="geometry">
            <mxPoint x="50" y="610" as="sourcePoint" />
            <mxPoint x="210" y="610" as="targetPoint" />
          </mxGeometry>
        </mxCell>
        <mxCell id="p8WYYzcqMeNaNPBPGeH2-51" value="" style="endArrow=open;endFill=1;endSize=12;html=1;rounded=0;exitX=0.5;exitY=0.5;exitDx=0;exitDy=0;exitPerimeter=0;" edge="1" parent="1" source="p8WYYzcqMeNaNPBPGeH2-3" target="p8WYYzcqMeNaNPBPGeH2-10">
          <mxGeometry width="160" relative="1" as="geometry">
            <mxPoint x="360" y="890" as="sourcePoint" />
            <mxPoint x="520" y="890" as="targetPoint" />
          </mxGeometry>
        </mxCell>
        <mxCell id="p8WYYzcqMeNaNPBPGeH2-53" value="" style="endArrow=open;endFill=1;endSize=12;html=1;rounded=0;entryX=0.05;entryY=0.8;entryDx=0;entryDy=0;entryPerimeter=0;" edge="1" parent="1" target="p8WYYzcqMeNaNPBPGeH2-21">
          <mxGeometry width="160" relative="1" as="geometry">
            <mxPoint x="400" y="950" as="sourcePoint" />
            <mxPoint x="550" y="950" as="targetPoint" />
          </mxGeometry>
        </mxCell>
      </root>
    </mxGraphModel>
  </diagram>
</mxfile>
